# xmcd CD database file
#
# Track frame offsets:
#	150
#	32995
#	53235
#	74337
#	89447
#	115172
#	135140
#	162152
#	180515
#
# Disc length: 2790 seconds
#
# Revision: 0
# Processed by: cddbd v1.5.2PL0 Copyright (c) Steve Scherf et al.
# Submitted via: CDex 1.70beta2
#
DISCID=710ae409
DTITLE=Various Artist - Planeta Nova Era (Disco 14)
DYEAR=1999
DGENRE=New Age
TTITLE0=Aeoliah - Windsong
TTITLE1=Gandalf - Song of the Unicorn
TTITLE2=Ulisses Rocha - De Repente Lembrei de Você
TTITLE3=Tarancón - Huauyta
TTITLE4=Luz da Ásia - Amistad
TTITLE5=Corciolli - Dedalus
TTITLE6=Anima - Duas Gigas
TTITLE7=Eloy Fritsch - Cosmic Winds
TTITLE8=Schicco Salles - Windfall
EXTD=YEAR: 1999
EXTT0=
EXTT1=
EXTT2=
EXTT3=
EXTT4=
EXTT5=
EXTT6=
EXTT7=
EXTT8=
PLAYORDER=
